<svg width="200" height="200" viewBox="0 0 200 200" fill="none" xmlns="http://www.w3.org/2000/svg">
<path d="M16.6626 33.3375C16.6626 14.925 53.9751 0 100 0C146.025 0 183.338 14.925 183.338 33.3375V50C183.338 68.4125 146.025 83.3375 100 83.3375C53.9751 83.3375 16.6626 68.4125 16.6626 50V33.3375Z" fill="#6198FF"/>
<path d="M16.6626 79.175V116.675C16.6626 135.062 53.9751 150 100 150C146.025 150 183.338 135.075 183.338 116.663V79.175C177.708 83.2301 171.584 86.5487 165.113 89.05C147.625 96.05 124.588 100 100 100C75.4251 100 52.3876 96.0375 34.9001 89.05C28.4289 86.5489 22.3042 83.2303 16.6751 79.175H16.6626Z" fill="#6198FF"/>
<path d="M183.338 145.85C177.708 149.901 171.583 153.215 165.113 155.712C147.613 162.712 124.588 166.662 99.9876 166.662C75.4126 166.662 52.3751 162.712 34.8876 155.712C28.4165 153.211 22.2918 149.893 16.6626 145.837V166.662C16.6626 185.075 53.9751 200 100 200C146.025 200 183.338 185.075 183.338 166.662V145.85Z" fill="#6198FF"/>
</svg>
