<svg width="200" height="200" viewBox="0 0 200 200" fill="none" xmlns="http://www.w3.org/2000/svg">
<path d="M16.6625 33.3375C16.6625 14.925 53.975 0 100 0C146.025 0 183.337 14.925 183.337 33.3375V50C183.337 68.4125 146.025 83.3375 100 83.3375C53.975 83.3375 16.6625 68.4125 16.6625 50V33.3375Z" fill="#3D7AED"/>
<path d="M16.6625 79.175V116.675C16.6625 135.062 53.975 150 100 150C146.025 150 183.337 135.075 183.337 116.663V79.175C177.708 83.2301 171.584 86.5487 165.112 89.05C147.625 96.05 124.587 100 100 100C75.425 100 52.3875 96.0375 34.9 89.05C28.4287 86.5489 22.304 83.2303 16.675 79.175H16.6625Z" fill="#3D7AED"/>
<path d="M183.337 145.85C177.708 149.901 171.583 153.215 165.112 155.712C147.612 162.712 124.587 166.662 99.9875 166.662C75.4125 166.662 52.375 162.712 34.8875 155.712C28.4164 153.211 22.2917 149.893 16.6625 145.837V166.662C16.6625 185.075 53.975 200 100 200C146.025 200 183.337 185.075 183.337 166.662V145.85Z" fill="#3D7AED"/>
</svg>
