<svg width="200" height="200" viewBox="0 0 200 200" fill="none" xmlns="http://www.w3.org/2000/svg">
<g clip-path="url(#clip0_24_157)">
<path d="M200 97.4083C200 84.1583 183.408 71.6 157.967 63.8167C163.842 37.8917 161.233 17.2583 149.733 10.65C146.947 9.08934 143.793 8.30377 140.6 8.375V17.4583C142.475 17.4583 143.983 17.8333 145.25 18.525C150.792 21.7083 153.2 33.8083 151.325 49.3833C150.875 53.2167 150.142 57.25 149.242 61.3667C140.722 59.3136 132.075 57.8298 123.358 56.925C118.165 49.7607 112.5 42.9512 106.4 36.5417C119.692 24.1917 132.167 17.425 140.65 17.425V8.33334C129.433 8.33334 114.758 16.325 99.9167 30.1833C85.0833 16.4167 70.4 8.5 59.1917 8.5V17.5833C67.6333 17.5833 80.15 24.3167 93.4417 36.5833C87.7333 42.5833 82.025 49.3833 76.6 56.925C67.8653 57.8198 59.2029 59.3178 50.675 61.4083C49.7737 57.5066 49.0645 53.563 48.55 49.5917C46.6333 34.0083 49 21.9083 54.5083 18.6917C55.725 17.9583 57.3167 17.625 59.1917 17.625V8.54167C55.775 8.54167 52.6667 9.275 49.9833 10.8167C38.525 17.425 35.9583 38.0083 41.8667 63.8583C16.5083 71.6917 0 84.2 0 97.4083C0 110.658 16.5917 123.217 42.0333 130.992C36.1583 156.925 38.7667 177.558 50.2667 184.158C52.9167 185.708 56.0167 186.442 59.4333 186.442C70.65 186.442 85.325 178.45 100.167 164.592C115 178.367 129.675 186.275 140.892 186.275C144.109 186.343 147.287 185.555 150.1 183.992C161.558 177.392 164.125 156.808 158.217 130.958C183.492 123.175 200 110.617 200 97.4083ZM146.917 70.2167C145.333 75.6655 143.498 81.0379 141.417 86.3167C138.01 79.6896 134.269 73.2397 130.208 66.9917C136 67.85 141.583 68.9083 146.925 70.2167H146.917ZM128.25 113.633C125.198 118.962 121.92 124.159 118.425 129.208C106.194 130.286 93.892 130.3 81.6583 129.25C74.6412 119.227 68.5045 108.615 63.3167 97.5333C68.4965 86.4259 74.6072 75.7767 81.5833 65.7C93.8116 64.6197 106.111 64.603 118.342 65.65C121.725 70.5 125.033 75.6833 128.208 81.15C131.308 86.4833 134.125 91.9 136.692 97.3667C134.097 102.9 131.28 108.326 128.25 113.633ZM141.417 108.333C143.617 113.792 145.5 119.258 147.042 124.558C141.708 125.867 136.075 126.967 130.25 127.817C134.294 121.512 138.021 115.009 141.417 108.333ZM100.083 151.833C96.2917 147.917 92.5 143.558 88.75 138.783C92.4167 138.95 96.1667 139.075 99.9583 139.075C103.792 139.075 107.583 138.992 111.292 138.783C107.625 143.558 103.833 147.917 100.083 151.833ZM69.75 127.817C64.1312 127.003 58.553 125.929 53.0333 124.6C54.5417 119.342 56.4167 113.917 58.5333 108.5C60.2083 111.75 61.9667 115.017 63.8833 118.283C65.8 121.542 67.75 124.725 69.75 127.817ZM99.875 42.9833C103.667 46.9 107.458 51.2583 111.208 56.0333C107.542 55.8667 103.792 55.7417 100 55.7417C96.1667 55.7417 92.375 55.825 88.6667 56.0333C92.3333 51.2583 96.125 46.9 99.875 42.9833ZM69.7083 67C65.6656 73.2911 61.9387 79.7797 58.5417 86.4417C56.4018 81.1288 54.5245 75.714 52.9167 70.2167C58.25 68.95 63.8833 67.85 69.7083 67ZM32.8167 118.033C18.3833 111.883 9.05 103.808 9.05 97.4083C9.05 91.0083 18.3833 82.8917 32.8167 76.7833C36.3167 75.275 40.15 73.925 44.1083 72.6667C46.4333 80.65 49.4917 88.9667 53.275 97.4917C49.703 105.51 46.6821 113.762 44.2333 122.192C40.3621 120.993 36.552 119.605 32.8167 118.033ZM54.75 176.283C49.2083 173.117 46.8 161 48.675 145.433C49.125 141.6 49.8583 137.558 50.7583 133.442C58.7417 135.4 67.4667 136.908 76.6417 137.892C81.8348 145.056 87.5002 151.865 93.6 158.275C80.3083 170.625 67.8333 177.392 59.35 177.392C57.7495 177.409 56.1694 177.031 54.75 176.292V176.283ZM151.45 145.225C153.367 160.8 151 172.908 145.492 176.125C144.275 176.858 142.683 177.183 140.808 177.183C132.367 177.183 119.85 170.458 106.558 158.183C112.633 151.801 118.26 145.007 123.4 137.85C132.135 136.955 140.797 135.457 149.325 133.367C150.267 137.483 150.992 141.433 151.45 145.225ZM167.142 118.033C163.642 119.542 159.808 120.892 155.85 122.15C153.358 113.678 150.296 105.384 146.683 97.325C150.433 88.85 153.442 80.575 155.725 72.625C159.609 73.8276 163.432 75.2153 167.183 76.7833C181.617 82.9333 190.95 91.0083 190.95 97.4083C190.908 103.808 181.575 111.925 167.142 118.033Z" fill="#3D7AED"/>
<path d="M99.9583 116.042C104.9 116.042 109.64 114.079 113.134 110.584C116.628 107.09 118.592 102.35 118.592 97.4083C118.592 92.4665 116.628 87.727 113.134 84.2326C109.64 80.7381 104.9 78.775 99.9583 78.775C95.0164 78.775 90.277 80.7381 86.7825 84.2326C83.2881 87.727 81.325 92.4665 81.325 97.4083C81.325 102.35 83.2881 107.09 86.7825 110.584C90.277 114.079 95.0164 116.042 99.9583 116.042Z" fill="#3D7AED"/>
</g>
<defs>
<clipPath id="clip0_24_157">
<rect width="200" height="200" fill="white"/>
</clipPath>
</defs>
</svg>
