<svg width="100" height="100" viewBox="0 0 100 100" fill="none" xmlns="http://www.w3.org/2000/svg">
<path d="M17.5077 43.6005C17.4644 43.5599 17.4136 43.5283 17.3581 43.5075C17.3025 43.4866 17.2435 43.4769 17.1842 43.4789C17.1028 43.4792 17.0228 43.4997 16.9513 43.5386L8.94342 48.9707C8.75804 49.0771 8.59387 49.2168 8.45915 49.3828C8.36382 49.5295 8.31763 49.7027 8.32727 49.8774V50.7759C8.31629 50.9481 8.36267 51.1191 8.45915 51.2622C8.59168 51.4303 8.75629 51.5704 8.94342 51.6743L16.9513 57.0961C17.0223 57.1365 17.1025 57.1579 17.1842 57.1579C17.3037 57.161 17.4198 57.1174 17.5077 57.0363C17.5965 56.9461 17.6467 56.8249 17.6479 56.6983V53.7701C17.6558 53.5811 17.5901 53.3963 17.4644 53.2549C17.3077 53.1002 17.1389 52.9582 16.9596 52.8304L13.5264 50.5286L13.1926 50.306L16.9493 47.792C17.1291 47.6609 17.2979 47.5155 17.4541 47.3571C17.5171 47.2896 17.5658 47.2101 17.5973 47.1234C17.6288 47.0366 17.6425 46.9444 17.6375 46.8523V43.924C17.6374 43.8035 17.5909 43.6877 17.5077 43.6005Z" fill="#202023"/>
<path d="M87.3087 57.0385C87.352 57.0791 87.4028 57.1107 87.4583 57.1315C87.5139 57.1524 87.5729 57.1621 87.6322 57.1601C87.7136 57.1598 87.7936 57.1393 87.8651 57.1004L95.873 51.6683C96.0584 51.5619 96.2225 51.4222 96.3573 51.2562C96.4526 51.1095 96.4988 50.9363 96.4891 50.7616L96.4891 49.8632C96.5001 49.6909 96.4537 49.5199 96.3573 49.3768C96.2247 49.2087 96.0601 49.0686 95.873 48.9647L87.8651 43.543C87.7941 43.5025 87.7139 43.4811 87.6322 43.4811C87.5127 43.478 87.3966 43.5216 87.3087 43.6027C87.22 43.693 87.1697 43.8141 87.1686 43.9407L87.1686 46.8689C87.1606 47.0579 87.2263 47.2427 87.352 47.3841C87.5087 47.5388 87.6775 47.6808 87.8568 47.8086L91.29 50.1104L91.6238 50.333L87.8671 52.8471C87.6873 52.9781 87.5185 53.1235 87.3623 53.2819C87.2993 53.3494 87.2506 53.4289 87.2191 53.5156C87.1876 53.6024 87.1739 53.6946 87.1789 53.7867L87.1789 56.715C87.179 56.8355 87.2255 56.9513 87.3087 57.0385Z" fill="#202023"/>
<path d="M85.3854 41.4388C85.3833 41.4169 85.3762 41.3958 85.3648 41.377C85.3535 41.2972 85.314 41.2241 85.2535 41.1709C85.2098 41.1275 85.1575 41.0936 85.1001 41.0713C85.0427 41.049 84.9813 41.0387 84.9197 41.0411H82.2737C82.0698 41.0327 81.8687 41.0901 81.6998 41.2047C81.531 41.3194 81.4035 41.4852 81.3361 41.6778L74.1855 58.9569C74.1553 59.0165 74.1378 59.0818 74.1339 59.1485C74.1328 59.2461 74.1689 59.3404 74.2349 59.4123C74.2411 59.4394 74.2555 59.4638 74.2761 59.4824C74.3198 59.526 74.372 59.5602 74.4294 59.5829C74.4868 59.6056 74.5483 59.6163 74.61 59.6142H77.2147C77.4194 59.6254 77.6221 59.5692 77.7918 59.4542C77.9616 59.3392 78.0889 59.1718 78.1544 58.9775L85.3545 41.6964C85.382 41.6363 85.3961 41.5709 85.3957 41.5047C85.3973 41.4823 85.3938 41.4597 85.3854 41.4388Z" fill="#202023"/>
<path d="M58.45 21.3201C58.1367 21.1902 57.8317 21.0687 57.5103 20.9471C54.4588 19.7578 51.2113 19.1511 47.9362 19.1584C33.2022 19.1584 21.2233 31.1476 21.2233 45.8714C21.2233 47.5591 21.3861 48.9315 21.7096 50.034C22.0826 51.3054 22.6781 52.1936 23.5168 52.7809C24.2932 53.2962 25.2108 53.5569 26.1422 53.5269C28.2132 53.5269 30.7788 52.5687 33.7668 51.4476C35.2093 50.9118 36.7569 50.3266 38.4137 49.8114V73.2108C38.4165 73.7537 38.5516 74.2877 38.8073 74.7666C38.8136 74.7715 38.8187 74.7778 38.8223 74.7849C38.8258 74.792 38.8277 74.7999 38.8279 74.8078C39.6357 76.2709 41.5336 77.3116 43.7262 77.3116H52.1483C55.0766 77.3116 57.4608 75.457 57.4608 73.2108V49.8114C59.1094 50.3266 60.6714 50.9118 62.0954 51.4476C66.5197 53.0962 70.0147 54.4068 72.3577 52.7809C73.9218 51.6887 74.6492 49.4982 74.6492 45.8714C74.6417 40.6442 73.1037 35.5337 70.2249 31.1707C67.3461 26.8077 63.2527 23.3832 58.45 21.3201ZM23.2345 45.8796C23.294 39.3698 25.9217 33.1469 30.546 28.5647C35.1702 23.9825 41.4169 21.4117 47.927 21.4117C54.437 21.4117 60.6837 23.9825 65.3079 28.5647C69.9322 33.1469 72.5599 39.3698 72.6194 45.8796C72.6194 48.709 72.1351 50.475 71.1954 51.1323C69.7117 52.1524 66.5094 50.951 62.7939 49.5662C60.9393 48.8697 58.8951 48.1031 56.6922 47.4766C56.2285 47.3345 55.7628 47.2129 55.2888 47.0934C55.0972 47.0418 54.8952 46.9924 54.7036 46.9512C50.2638 45.7913 45.6004 45.7913 41.1606 46.9512C40.9546 46.9924 40.7485 47.0418 40.5651 47.0934C40.0891 47.2129 39.6254 47.3345 39.1597 47.4766C36.9588 48.0949 34.8981 48.8697 33.0497 49.5662C29.3404 50.951 26.1319 52.1524 24.6585 51.1323C24.2463 50.8397 23.9228 50.3445 23.6879 49.6466C23.3849 48.7193 23.2345 47.4581 23.2345 45.8796ZM40.4229 73.0603V49.2056C40.7773 49.1046 41.1297 49.0139 41.4924 48.9315C43.5956 48.3958 45.7556 48.1149 47.9259 48.0949C50.1003 48.1144 52.2642 48.3988 54.3698 48.9418C54.7242 49.0222 55.0766 49.1149 55.431 49.2159V73.0603C55.431 74.5131 53.9556 75.696 52.1339 75.696H43.7159C42.4218 75.696 41.2904 75.0901 40.767 74.2205C40.544 73.8745 40.4246 73.472 40.4229 73.0603Z" fill="#202023"/>
<path d="M42.327 50.8068C42.327 50.5279 42.101 50.3019 41.8221 50.3019C41.5433 50.3019 41.3173 50.5279 41.3173 50.8068V56.4902C41.3173 56.7691 41.5433 56.9951 41.8221 56.9951C42.101 56.9951 42.327 56.7691 42.327 56.4902V50.8068Z" fill="#202023"/>
<path d="M54.4192 65.8767C54.4192 65.5979 54.1931 65.3719 53.9143 65.3719C53.6355 65.3719 53.4094 65.5979 53.4094 65.8767V69.9013C53.4094 70.1801 53.6355 70.4062 53.9143 70.4062C54.1931 70.4062 54.4192 70.1801 54.4192 69.9013V65.8767Z" fill="#202023"/>
<path d="M53.9143 64.6877C54.192 64.6877 54.4171 64.4626 54.4171 64.1849C54.4171 63.9072 54.192 63.6821 53.9143 63.6821C53.6366 63.6821 53.4115 63.9072 53.4115 64.1849C53.4115 64.4626 53.6366 64.6877 53.9143 64.6877Z" fill="#202023"/>
<path d="M26.9623 50.6831C26.4028 50.698 25.8551 50.5205 25.4106 50.1803C23.9558 49.0387 24.2154 46.3886 24.2278 46.2773C24.2382 46.1776 24.2877 46.0861 24.3656 46.0229C24.4435 45.9597 24.5433 45.93 24.643 45.9404C24.7427 45.9508 24.8343 46.0004 24.8975 46.0783C24.9607 46.1561 24.9903 46.2559 24.9799 46.3557C24.9799 46.3783 24.7533 48.7028 25.8784 49.5848C26.4245 50.0134 27.2385 50.0361 28.3039 49.6548C28.397 49.6266 28.4974 49.6352 28.5843 49.6789C28.6713 49.7227 28.7381 49.7982 28.7709 49.8898C28.8037 49.9814 28.8001 50.0821 28.7607 50.1711C28.7213 50.2601 28.6493 50.3305 28.5594 50.3679C28.049 50.5636 27.5088 50.6702 26.9623 50.6831Z" fill="#202023"/>
<path d="M69.0008 35.7822C68.9417 35.7709 68.8865 35.7444 68.8406 35.7054C68.7948 35.6664 68.7598 35.6162 68.7391 35.5596C67.8513 32.9892 66.1497 30.7784 63.8923 29.2621C63.8552 29.2395 63.8231 29.2096 63.7979 29.1741C63.7728 29.1387 63.7551 29.0985 63.746 29.056C63.7398 29.0171 63.7419 28.9774 63.7522 28.9393C63.7625 28.9013 63.7808 28.8659 63.8058 28.8355C63.8633 28.7712 63.9422 28.7298 64.0278 28.7192C64.1135 28.7086 64.2001 28.7294 64.2715 28.7778C64.8897 29.1714 68.0302 31.3455 69.3883 35.4133C69.4015 35.4523 69.406 35.4938 69.4013 35.5348C69.3967 35.5757 69.3831 35.6152 69.3615 35.6503C69.336 35.6898 69.3021 35.7233 69.2622 35.7482C69.2223 35.7731 69.1774 35.789 69.1307 35.7945C69.087 35.7977 69.0431 35.7935 69.0008 35.7822Z" fill="#202023"/>
<path d="M24.7121 45.5066C24.9488 45.5066 25.1407 45.3147 25.1407 45.078C25.1407 44.8413 24.9488 44.6494 24.7121 44.6494C24.4754 44.6494 24.2834 44.8413 24.2834 45.078C24.2834 45.3147 24.4754 45.5066 24.7121 45.5066Z" fill="#202023"/>
<path d="M69.3079 36.8764C69.5286 36.8764 69.7076 36.6974 69.7076 36.4766C69.7076 36.2558 69.5286 36.0768 69.3079 36.0768C69.0871 36.0768 68.9081 36.2558 68.9081 36.4766C68.9081 36.6974 69.0871 36.8764 69.3079 36.8764Z" fill="#202023"/>
<path d="M45.1996 74.1999C45.1757 74.0839 45.1101 73.9808 45.0151 73.9101C44.92 73.8394 44.8023 73.8061 44.6844 73.8167C44.2722 73.8785 43.2604 73.9382 42.6443 73.3839C42.5823 73.3268 42.5283 73.2616 42.4836 73.1902C42.2093 72.818 42.0797 72.3588 42.1188 71.8981V71.756C42.125 71.6369 42.0838 71.5202 42.0043 71.4314C41.9248 71.3426 41.8133 71.2889 41.6943 71.282C41.6327 71.2765 41.5707 71.2835 41.5119 71.3026C41.4531 71.3217 41.3988 71.3526 41.3522 71.3933C41.3048 71.4313 41.2658 71.4788 41.2378 71.5327C41.2097 71.5866 41.1933 71.6458 41.1894 71.7065C41.1378 72.3382 41.2756 72.9709 41.5851 73.524C41.6974 73.7351 41.8476 73.9237 42.0281 74.0804C42.6855 74.6554 43.5634 74.777 44.1795 74.777C44.3863 74.7774 44.5928 74.7636 44.7977 74.7357C44.8603 74.7313 44.921 74.7127 44.9753 74.6813C45.0296 74.6499 45.076 74.6065 45.111 74.5544C45.1339 74.5226 45.1539 74.4888 45.1707 74.4534C45.1957 74.3714 45.2055 74.2855 45.1996 74.1999Z" fill="#202023"/>
<path d="M42.5413 23.2118C42.5188 23.2579 42.4851 23.2977 42.4434 23.3276C42.4016 23.3574 42.3531 23.3764 42.3022 23.3829C38.935 23.6508 36.6064 25.6847 36.1613 26.0968C36.1345 26.1236 36.1022 26.1443 36.0666 26.1574C36.031 26.1706 35.9931 26.1759 35.9552 26.1731C35.9232 26.1707 35.8922 26.1609 35.8647 26.1445C35.8371 26.128 35.8138 26.1053 35.7966 26.0783C35.7604 26.0143 35.7474 25.9398 35.7598 25.8673C35.7722 25.7949 35.8092 25.7289 35.8646 25.6806C36.3262 25.2519 38.8031 23.1006 42.3373 22.8244C42.3708 22.8209 42.4046 22.8256 42.4359 22.8382C42.4671 22.8507 42.4948 22.8708 42.5165 22.8965C42.5416 22.9273 42.5597 22.9631 42.5697 23.0015C42.5796 23.0399 42.5812 23.08 42.5742 23.1191C42.5674 23.1513 42.5563 23.1825 42.5413 23.2118Z" fill="#202023"/>
</svg>
