<svg width="100" height="100" viewBox="0 0 100 100" fill="none" xmlns="http://www.w3.org/2000/svg">
<path d="M17.5077 43.6005C17.4644 43.5599 17.4136 43.5283 17.3581 43.5075C17.3025 43.4866 17.2435 43.4769 17.1842 43.4789C17.1028 43.4792 17.0228 43.4997 16.9513 43.5386L8.94342 48.9707C8.75804 49.0771 8.59387 49.2168 8.45915 49.3828C8.36382 49.5295 8.31763 49.7027 8.32727 49.8774V50.7759C8.31629 50.9481 8.36267 51.1191 8.45915 51.2622C8.59168 51.4303 8.75629 51.5704 8.94342 51.6743L16.9513 57.0961C17.0223 57.1365 17.1025 57.1579 17.1842 57.1579C17.3037 57.161 17.4198 57.1174 17.5077 57.0363C17.5965 56.9461 17.6467 56.8249 17.6479 56.6983V53.7701C17.6558 53.5811 17.5901 53.3963 17.4644 53.2549C17.3077 53.1002 17.1389 52.9582 16.9596 52.8304L13.5264 50.5286L13.1926 50.306L16.9493 47.792C17.1291 47.6609 17.2979 47.5155 17.4541 47.3571C17.5171 47.2896 17.5658 47.2101 17.5973 47.1234C17.6288 47.0366 17.6425 46.9444 17.6375 46.8523V43.924C17.6374 43.8035 17.5909 43.6877 17.5077 43.6005V43.6005Z" fill="#1A202C"/>
<path d="M87.3087 57.0385C87.352 57.079 87.4028 57.1106 87.4583 57.1315C87.5139 57.1524 87.5729 57.1621 87.6322 57.1601C87.7136 57.1598 87.7936 57.1393 87.8651 57.1003L95.873 51.6683C96.0584 51.5618 96.2225 51.4221 96.3573 51.2562C96.4526 51.1095 96.4988 50.9363 96.4891 50.7616L96.4891 49.8631C96.5001 49.6909 96.4537 49.5199 96.3573 49.3768C96.2247 49.2087 96.0601 49.0686 95.873 48.9647L87.8651 43.5429C87.7941 43.5024 87.7139 43.4811 87.6322 43.4811C87.5127 43.478 87.3966 43.5216 87.3087 43.6027C87.22 43.6929 87.1697 43.8141 87.1686 43.9406L87.1686 46.8689C87.1606 47.0579 87.2263 47.2426 87.352 47.3841C87.5087 47.5388 87.6775 47.6807 87.8568 47.8086L91.29 50.1104L91.6238 50.333L87.8671 52.847C87.6873 52.978 87.5185 53.1235 87.3623 53.2818C87.2993 53.3493 87.2506 53.4288 87.2191 53.5156C87.1876 53.6023 87.1739 53.6945 87.1789 53.7867L87.1789 56.715C87.179 56.8355 87.2255 56.9513 87.3087 57.0385V57.0385Z" fill="#1A202C"/>
<path d="M85.3853 41.4388C85.3832 41.4169 85.3761 41.3958 85.3647 41.377C85.3533 41.2972 85.3139 41.2241 85.2534 41.1709C85.2096 41.1275 85.1574 41.0936 85.1 41.0713C85.0426 41.049 84.9811 41.0387 84.9196 41.0411H82.2736C82.0697 41.0327 81.8685 41.0901 81.6997 41.2047C81.5309 41.3194 81.4034 41.4852 81.336 41.6778L74.1853 58.9569C74.1552 59.0165 74.1376 59.0818 74.1338 59.1485C74.1327 59.2461 74.1688 59.3404 74.2348 59.4123C74.2409 59.4394 74.2553 59.4638 74.276 59.4824C74.3197 59.526 74.3718 59.5602 74.4292 59.5829C74.4867 59.6056 74.5481 59.6163 74.6098 59.6142H77.2146C77.4193 59.6254 77.622 59.5692 77.7917 59.4542C77.9614 59.3392 78.0888 59.1718 78.1543 58.9775L85.3544 41.6964C85.3819 41.6363 85.396 41.5709 85.3956 41.5047C85.3972 41.4823 85.3937 41.4597 85.3853 41.4388V41.4388Z" fill="#1A202C"/>
<path d="M58.4498 21.3201C58.1366 21.1902 57.8316 21.0687 57.5102 20.9471C54.4586 19.7578 51.2112 19.1511 47.9361 19.1584C33.202 19.1584 21.2231 31.1476 21.2231 45.8714C21.2231 47.5591 21.3859 48.9315 21.7095 50.034C22.0825 51.3054 22.678 52.1936 23.5167 52.7809C24.2931 53.2962 25.2107 53.5569 26.1421 53.5269C28.2131 53.5269 30.7786 52.5687 33.7667 51.4476C35.2092 50.9118 36.7568 50.3266 38.4136 49.8114V73.2108C38.4164 73.7537 38.5515 74.2877 38.8072 74.7666C38.8135 74.7715 38.8186 74.7778 38.8221 74.7849C38.8257 74.792 38.8276 74.7999 38.8278 74.8078C39.6356 76.2709 41.5335 77.3116 43.7261 77.3116H52.1482C55.0765 77.3116 57.4607 75.4569 57.4607 73.2108V49.8114C59.1093 50.3266 60.6713 50.9118 62.0952 51.4476C66.5196 53.0962 70.0145 54.4068 72.3576 52.7809C73.9216 51.6887 74.6491 49.4982 74.6491 45.8714C74.6416 40.6442 73.1035 35.5337 70.2248 31.1707C67.346 26.8077 63.2526 23.3832 58.4498 21.3201V21.3201ZM23.2344 45.8796C23.2939 39.3698 25.9216 33.1469 30.5459 28.5647C35.1701 23.9825 41.4168 21.4117 47.9268 21.4117C54.4369 21.4117 60.6835 23.9825 65.3078 28.5647C69.9321 33.1469 72.5598 39.3698 72.6193 45.8796C72.6193 48.709 72.135 50.475 71.1953 51.1323C69.7116 52.1524 66.5093 50.951 62.7938 49.5662C60.9392 48.8697 58.895 48.1031 56.6921 47.4766C56.2284 47.3345 55.7627 47.2129 55.2887 47.0934C55.0971 47.0418 54.8951 46.9924 54.7035 46.9512C50.2637 45.7913 45.6003 45.7913 41.1605 46.9512C40.9544 46.9924 40.7484 47.0418 40.565 47.0934C40.0889 47.2129 39.6253 47.3345 39.1596 47.4766C36.9587 48.0949 34.898 48.8697 33.0496 49.5662C29.3403 50.951 26.1318 52.1524 24.6583 51.1323C24.2462 50.8397 23.9227 50.3445 23.6878 49.6466C23.3848 48.7193 23.2344 47.4581 23.2344 45.8796ZM40.4228 73.0603V49.2056C40.7772 49.1046 41.1296 49.0139 41.4923 48.9315C43.5955 48.3958 45.7555 48.1149 47.9258 48.0949C50.1002 48.1144 52.2641 48.3988 54.3696 48.9418C54.7241 49.0222 55.0765 49.1149 55.4309 49.2159V73.0603C55.4309 74.5131 53.9554 75.696 52.1338 75.696H43.7158C42.4217 75.696 41.2903 75.0901 40.7669 74.2205C40.5439 73.8745 40.4245 73.472 40.4228 73.0603V73.0603Z" fill="#1A202C"/>
<path d="M42.3269 50.8068C42.3269 50.5279 42.1008 50.3019 41.822 50.3019C41.5432 50.3019 41.3171 50.5279 41.3171 50.8068V56.4902C41.3171 56.769 41.5432 56.9951 41.822 56.9951C42.1008 56.9951 42.3269 56.769 42.3269 56.4902V50.8068Z" fill="#1A202C"/>
<path d="M54.4192 65.8767C54.4192 65.5979 54.1931 65.3718 53.9143 65.3718C53.6355 65.3718 53.4094 65.5979 53.4094 65.8767V69.9013C53.4094 70.1801 53.6355 70.4061 53.9143 70.4061C54.1931 70.4061 54.4192 70.1801 54.4192 69.9013V65.8767Z" fill="#1A202C"/>
<path d="M53.9142 64.6877C54.1919 64.6877 54.417 64.4626 54.417 64.1849C54.417 63.9072 54.1919 63.6821 53.9142 63.6821C53.6365 63.6821 53.4114 63.9072 53.4114 64.1849C53.4114 64.4626 53.6365 64.6877 53.9142 64.6877Z" fill="#1A202C"/>
<path d="M26.9622 50.6831C26.4027 50.698 25.855 50.5205 25.4105 50.1803C23.9556 49.0387 24.2153 46.3886 24.2277 46.2773C24.238 46.1776 24.2876 46.086 24.3655 46.0229C24.4434 45.9597 24.5431 45.93 24.6429 45.9404C24.7426 45.9508 24.8342 46.0004 24.8973 46.0782C24.9605 46.1561 24.9902 46.2559 24.9798 46.3556C24.9798 46.3783 24.7531 48.7028 25.8783 49.5848C26.4244 50.0134 27.2383 50.036 28.3037 49.6548C28.3969 49.6266 28.4973 49.6352 28.5842 49.6789C28.6711 49.7226 28.7379 49.7981 28.7708 49.8897C28.8036 49.9813 28.7999 50.0821 28.7606 50.1711C28.7212 50.26 28.6491 50.3305 28.5593 50.3678C28.0489 50.5635 27.5087 50.6702 26.9622 50.6831V50.6831Z" fill="#1A202C"/>
<path d="M69.0007 35.7821C68.9416 35.7708 68.8864 35.7444 68.8405 35.7054C68.7946 35.6664 68.7597 35.6161 68.739 35.5596V35.5596C67.8512 32.9892 66.1496 30.7784 63.8922 29.262C63.8551 29.2395 63.823 29.2095 63.7978 29.1741C63.7727 29.1387 63.755 29.0985 63.7459 29.056C63.7397 29.0171 63.7418 28.9773 63.7521 28.9393C63.7624 28.9013 63.7807 28.8659 63.8057 28.8355C63.8632 28.7711 63.9421 28.7298 64.0277 28.7192C64.1133 28.7086 64.1999 28.7294 64.2714 28.7778C64.8896 29.1714 68.0301 31.3454 69.3881 35.4133C69.4014 35.4523 69.4058 35.4938 69.4012 35.5347C69.3966 35.5757 69.383 35.6151 69.3613 35.6502C69.3359 35.6898 69.302 35.7232 69.2621 35.7482C69.2222 35.7731 69.1773 35.7889 69.1305 35.7945C69.0869 35.7977 69.043 35.7935 69.0007 35.7821V35.7821Z" fill="#1A202C"/>
<path d="M24.7118 45.5066C24.9486 45.5066 25.1405 45.3147 25.1405 45.078C25.1405 44.8413 24.9486 44.6494 24.7118 44.6494C24.4751 44.6494 24.2832 44.8413 24.2832 45.078C24.2832 45.3147 24.4751 45.5066 24.7118 45.5066Z" fill="#1A202C"/>
<path d="M69.3077 36.8763C69.5285 36.8763 69.7075 36.6973 69.7075 36.4766C69.7075 36.2558 69.5285 36.0768 69.3077 36.0768C69.0869 36.0768 68.908 36.2558 68.908 36.4766C68.908 36.6973 69.0869 36.8763 69.3077 36.8763Z" fill="#1A202C"/>
<path d="M45.1994 74.1999C45.1756 74.0839 45.1099 73.9807 45.0149 73.91C44.9199 73.8393 44.8022 73.8061 44.6843 73.8166C44.2721 73.8784 43.2603 73.9382 42.6442 73.3838C42.5822 73.3267 42.5281 73.2616 42.4834 73.1901C42.2092 72.8179 42.0795 72.3587 42.1187 71.8981V71.7559C42.1249 71.6368 42.0837 71.5202 42.0042 71.4314C41.9246 71.3426 41.8132 71.2888 41.6942 71.2819C41.6326 71.2764 41.5705 71.2834 41.5117 71.3025C41.4529 71.3217 41.3986 71.3525 41.3521 71.3932C41.3047 71.4312 41.2657 71.4787 41.2377 71.5326C41.2096 71.5866 41.1932 71.6458 41.1893 71.7064C41.1377 72.3381 41.2754 72.9709 41.585 73.524C41.6973 73.735 41.8475 73.9236 42.028 74.0804C42.6854 74.6553 43.5632 74.7769 44.1794 74.7769C44.3862 74.7773 44.5927 74.7636 44.7976 74.7357C44.8602 74.7313 44.9209 74.7127 44.9752 74.6812C45.0295 74.6498 45.0759 74.6064 45.1108 74.5543C45.1337 74.5225 45.1537 74.4887 45.1706 74.4534C45.1956 74.3713 45.2054 74.2854 45.1994 74.1999V74.1999Z" fill="#1A202C"/>
<path d="M42.5411 23.2118C42.5186 23.2579 42.485 23.2977 42.4433 23.3276C42.4015 23.3574 42.353 23.3764 42.3021 23.3828V23.3828C38.9349 23.6507 36.6063 25.6847 36.1612 26.0968C36.1343 26.1236 36.102 26.1442 36.0665 26.1574C36.0309 26.1706 35.9929 26.1759 35.9551 26.173C35.9231 26.1707 35.8921 26.1609 35.8646 26.1444C35.837 26.128 35.8137 26.1053 35.7964 26.0782C35.7603 26.0143 35.7473 25.9397 35.7597 25.8673C35.7721 25.7948 35.8091 25.7289 35.8644 25.6805C36.326 25.2519 38.803 23.1005 42.3371 22.8244C42.3706 22.8208 42.4045 22.8256 42.4358 22.8381C42.467 22.8507 42.4947 22.8708 42.5164 22.8965C42.5415 22.9273 42.5596 22.9631 42.5695 23.0015C42.5795 23.0399 42.5811 23.08 42.5741 23.1191C42.5673 23.1513 42.5562 23.1825 42.5411 23.2118Z" fill="#1A202C"/>
</svg>
