<svg width="200" height="200" viewBox="0 0 200 200" fill="none" xmlns="http://www.w3.org/2000/svg">
<path d="M20 45.01C20 38.3796 22.6339 32.0207 27.3223 27.3323C32.0107 22.6439 38.3696 20.01 45 20.01H135C141.63 20.01 147.989 22.6439 152.678 27.3323C157.366 32.0207 160 38.3796 160 45.01V67.12C156.586 67.3764 153.222 68.0929 150 69.25V60H30V135C30 138.978 31.5804 142.794 34.3934 145.607C37.2064 148.42 41.0218 150 45 150H111.9L107.52 157.6C107.071 158.375 106.67 159.176 106.32 160H45C38.3696 160 32.0107 157.366 27.3223 152.678C22.6339 147.989 20 141.63 20 135V45V45.01ZM44.99 30C41.0118 30 37.1964 31.5804 34.3834 34.3934C31.5704 37.2064 29.99 41.0218 29.99 45V50H149.99V45C149.99 41.0218 148.41 37.2064 145.597 34.3934C142.784 31.5804 138.968 30 134.99 30H44.99ZM138.74 90.91C136.068 95.5364 134.785 100.835 135.046 106.171C135.307 111.508 137.099 116.656 140.21 121L116.18 162.61C114.644 165.27 114.228 168.431 115.024 171.398C115.819 174.365 117.76 176.894 120.42 178.43C123.08 179.966 126.241 180.382 129.208 179.586C132.175 178.791 134.704 176.85 136.24 174.19L160.31 132.49C165.814 132.986 171.341 131.831 176.185 129.172C181.029 126.513 184.971 122.47 187.507 117.56C190.043 112.65 191.058 107.096 190.423 101.606C189.788 96.1165 187.531 90.9408 183.94 86.74L170.84 109.44C169.569 111.482 167.555 112.95 165.222 113.535C162.889 114.119 160.42 113.774 158.337 112.572C156.254 111.37 154.719 109.406 154.057 107.093C153.395 104.781 153.658 102.302 154.79 100.18L167.89 77.48C162.239 76.4305 156.401 77.1584 151.181 79.5635C145.961 81.9686 141.614 85.9327 138.74 90.91ZM125.6 111.45C124.344 104.466 125.09 97.2687 127.75 90.69L108.52 71.46C108.059 70.9824 107.507 70.6015 106.897 70.3395C106.287 70.0774 105.631 69.9395 104.967 69.9337C104.303 69.928 103.645 70.0545 103.03 70.3059C102.416 70.5573 101.857 70.9286 101.388 71.398C100.919 71.8675 100.547 72.4257 100.296 73.0402C100.044 73.6547 99.918 74.3131 99.9237 74.977C99.9295 75.6409 100.067 76.297 100.329 76.907C100.592 77.517 100.972 78.0688 101.45 78.53L122.92 100L101.45 121.46C100.972 121.921 100.592 122.473 100.329 123.083C100.067 123.693 99.9295 124.349 99.9237 125.013C99.918 125.677 100.044 126.335 100.296 126.95C100.547 127.564 100.919 128.123 101.388 128.592C101.857 129.061 102.416 129.433 103.03 129.684C103.645 129.936 104.303 130.062 104.967 130.056C105.631 130.05 106.287 129.913 106.897 129.651C107.507 129.388 108.059 129.008 108.52 128.53L125.6 111.45ZM83.52 78.53C84.4308 77.587 84.9348 76.324 84.9234 75.013C84.912 73.702 84.3861 72.4479 83.4591 71.5209C82.5321 70.5939 81.278 70.068 79.967 70.0566C78.656 70.0452 77.393 70.5492 76.45 71.46L51.45 96.46C50.5126 97.3976 49.9861 98.6692 49.9861 99.995C49.9861 101.321 50.5126 102.592 51.45 103.53L76.45 128.53C77.393 129.441 78.656 129.945 79.967 129.933C81.278 129.922 82.5321 129.396 83.4591 128.469C84.3861 127.542 84.912 126.288 84.9234 124.977C84.9348 123.666 84.4308 122.403 83.52 121.46L62.06 100L83.52 78.53Z" fill="#6198FF"/>
</svg>
